<svg xmlns="http://www.w3.org/2000/svg" width="18" height="18" viewBox="0 0 18 18">
  <g id="Menu" transform="translate(-3 -3)">
    <g id="Group_1061" data-name="Group 1061" transform="translate(3 3)">
      <path id="Path_1" data-name="Path 1" d="M8.191,3.156a5.9,5.9,0,0,0-2.7,0A3.14,3.14,0,0,0,3.156,5.5a5.9,5.9,0,0,0,0,2.7,3.14,3.14,0,0,0,2.34,2.34,5.9,5.9,0,0,0,2.7,0,3.14,3.14,0,0,0,2.34-2.34,5.9,5.9,0,0,0,0-2.7,3.14,3.14,0,0,0-2.34-2.34Z" transform="translate(-3 -3)" fill="#b8c1c7"/>
      <path id="Path_2" data-name="Path 2" d="M8.191,13.469a5.9,5.9,0,0,0-2.7,0,3.14,3.14,0,0,0-2.34,2.34,5.9,5.9,0,0,0,0,2.7,3.14,3.14,0,0,0,2.34,2.34,5.9,5.9,0,0,0,2.7,0,3.14,3.14,0,0,0,2.34-2.34,5.9,5.9,0,0,0,0-2.7A3.14,3.14,0,0,0,8.191,13.469Z" transform="translate(-3 -3)" fill="#b8c1c7"/>
      <path id="Path_3" data-name="Path 3" d="M18.5,3.156a5.9,5.9,0,0,0-2.7,0,3.14,3.14,0,0,0-2.34,2.34,5.9,5.9,0,0,0,0,2.7,3.14,3.14,0,0,0,2.34,2.34,5.9,5.9,0,0,0,2.7,0,3.14,3.14,0,0,0,2.34-2.34,5.9,5.9,0,0,0,0-2.7A3.14,3.14,0,0,0,18.5,3.156Z" transform="translate(-3 -3)" fill="#b8c1c7"/>
      <path id="Path_4" data-name="Path 4" d="M18.5,13.469a5.9,5.9,0,0,0-2.7,0,3.14,3.14,0,0,0-2.34,2.34,5.9,5.9,0,0,0,0,2.7,3.14,3.14,0,0,0,2.34,2.34,5.9,5.9,0,0,0,2.7,0,3.14,3.14,0,0,0,2.34-2.34,5.9,5.9,0,0,0,0-2.7,3.14,3.14,0,0,0-2.34-2.34Z" transform="translate(-3 -3)" fill="#b8c1c7"/>
    </g>
  </g>
</svg>
